<svg xmlns="http://www.w3.org/2000/svg" viewBox="0 0 100 100"><defs><style type="text/css">g { display: none; } g:target { display: inline; }</style></defs><g id="tfl-lu">
<path d="M76.2227 49.6264C76.2227 64.1031 64.4783 75.8428 50.0016 75.8428C35.5213 75.8428 23.7875 64.1031 23.7875 49.6264C23.7875 35.152 35.5211 23.416 50.0016 23.416C64.4783 23.416 76.2227 35.1521 76.2227 49.6264ZM50.0016 9C27.5598 9 9.36914 27.1904 9.36914 49.6264C9.36914 72.067 27.5596 90.2588 50.0016 90.2588C72.4399 90.2588 90.6291 72.0672 90.6291 49.6264C90.6293 27.1904 72.4399 9 50.0016 9Z" fill="#E1251F" />
<path d="M100 41.4106H0V57.8466H100V41.4106Z" fill="#000F9F" />
</g><g id="uk-nr">
<path d="M51.9797 44.1321H0V33.8118H51.9794L20.68 19H43.2999L74.5993 33.8118H100V44.1321H74.5996L48.0208 56.71H100V67.0304H48.0205L79.3699 81.8659H56.75L25.4005 67.0304H0V56.71H25.4009L51.9797 44.1321Z" fill="#ED1C24" />
</g><g id="tfl-dlr">
<path d="M75.8535 49.6264C75.8535 64.1031 64.1092 75.8428 49.6324 75.8428C35.1522 75.8428 23.4184 64.1031 23.4184 49.6264C23.4184 35.152 35.152 23.416 49.6324 23.416C64.1092 23.416 75.8535 35.1521 75.8535 49.6264ZM49.6324 9C27.1906 9 9 27.1904 9 49.6264C9 72.067 27.1904 90.2588 49.6324 90.2588C72.0707 90.2588 90.26 72.0672 90.26 49.6264C90.2602 27.1904 72.0707 9 49.6324 9Z" fill="#00AFAA" />
<path d="M100 41H0V57.4359H100V41Z" fill="#000F9F" />
</g><g id="tfl-lo">
<path d="M75.8535 49.6264C75.8535 64.1031 64.1092 75.8428 49.6324 75.8428C35.1522 75.8428 23.4184 64.1031 23.4184 49.6264C23.4184 35.152 35.152 23.416 49.6324 23.416C64.1092 23.416 75.8535 35.1521 75.8535 49.6264ZM49.6324 9C27.1906 9 9 27.1904 9 49.6264C9 72.067 27.1904 90.2588 49.6324 90.2588C72.0707 90.2588 90.26 72.0672 90.26 49.6264C90.2602 27.1904 72.0707 9 49.6324 9Z" fill="#FF6309" />
<path d="M100 41H0V57.4359H100V41Z" fill="#000F9F" />
</g><g id="tfl-el">
<path d="M75.8535 49.6264C75.8535 64.1031 64.1092 75.8428 49.6324 75.8428C35.1522 75.8428 23.4184 64.1031 23.4184 49.6264C23.4184 35.152 35.152 23.416 49.6324 23.416C64.1092 23.416 75.8535 35.1521 75.8535 49.6264ZM49.6324 9C27.1906 9 9 27.1904 9 49.6264C9 72.067 27.1904 90.2588 49.6324 90.2588C72.0707 90.2588 90.26 72.0672 90.26 49.6264C90.2602 27.1904 72.0707 9 49.6324 9Z" fill="#773DBD" />
<path d="M100 41H0V57.4359H100V41Z" fill="#000F9F" />
</g></svg>