<svg width="100" height="82" viewBox="0 0 100 82" fill="none" xmlns="http://www.w3.org/2000/svg">
<path d="M76.2227 40.8725C76.2227 55.3492 64.4783 67.0889 50.0016 67.0889C35.5213 67.0889 23.7875 55.3492 23.7875 40.8725C23.7875 26.398 35.5211 14.6621 50.0016 14.6621C64.4783 14.6621 76.2227 26.3982 76.2227 40.8725ZM50.0016 0.246094C27.5598 0.246094 9.36914 18.4365 9.36914 40.8725C9.36914 63.3131 27.5596 81.5049 50.0016 81.5049C72.4399 81.5049 90.6291 63.3133 90.6291 40.8725C90.6293 18.4365 72.4399 0.246094 50.0016 0.246094Z" fill="#E1251F"/>
<path d="M100 32.6567H0V49.0927H100V32.6567Z" fill="#000F9F"/>
</svg>
