<svg width="100" height="82" viewBox="0 0 100 82" fill="none" xmlns="http://www.w3.org/2000/svg">
<path d="M75.8535 40.6264C75.8535 55.1031 64.1092 66.8428 49.6324 66.8428C35.1522 66.8428 23.4184 55.1031 23.4184 40.6264C23.4184 26.152 35.152 14.416 49.6324 14.416C64.1092 14.416 75.8535 26.1521 75.8535 40.6264ZM49.6324 0C27.1906 0 9 18.1904 9 40.6264C9 63.067 27.1904 81.2588 49.6324 81.2588C72.0707 81.2588 90.26 63.0672 90.26 40.6264C90.2602 18.1904 72.0707 0 49.6324 0Z" fill="#FF6309"/>
<path d="M100 32H0V48.4359H100V32Z" fill="#000F9F"/>
</svg>
