<svg width="100" height="100" viewBox="0 0 100 100" fill="none" xmlns="http://www.w3.org/2000/svg">
<path d="M76.2227 49.6264C76.2227 64.1031 64.4783 75.8428 50.0016 75.8428C35.5213 75.8428 23.7875 64.1031 23.7875 49.6264C23.7875 35.152 35.5211 23.416 50.0016 23.416C64.4783 23.416 76.2227 35.1521 76.2227 49.6264ZM50.0016 9C27.5598 9 9.36914 27.1904 9.36914 49.6264C9.36914 72.067 27.5596 90.2588 50.0016 90.2588C72.4399 90.2588 90.6291 72.0672 90.6291 49.6264C90.6293 27.1904 72.4399 9 50.0016 9Z" fill="#E1251F"/>
<path d="M100 41.4106H0V57.8466H100V41.4106Z" fill="#000F9F"/>
</svg>
