<svg width="100" height="100" viewBox="0 0 100 100" fill="none" xmlns="http://www.w3.org/2000/svg">
<path fill-rule="evenodd" clip-rule="evenodd" d="M0 38.2051H11.958C16.9025 21.8836 32.0605 10 50 10C67.9395 10 83.0975 21.8836 88.0421 38.2051H100V61.2821H88.0421C83.0975 77.6036 67.9395 89.4872 50 89.4872C32.0605 89.4872 16.9025 77.6036 11.958 61.2821H0V38.2051Z" fill="white"/>
<path fill-rule="evenodd" clip-rule="evenodd" d="M69.8673 58.7179C66.4468 66.2783 58.8377 71.5384 50 71.5384C41.1623 71.5384 33.5531 66.2783 30.1327 58.7179H69.8673ZM69.8673 40.7692H30.1327C33.5531 33.2089 41.1623 27.9487 50 27.9487C58.8377 27.9487 66.4468 33.2089 69.8673 40.7692ZM86.0891 40.7692C82.0743 24.5711 67.4394 12.5641 50 12.5641C32.5606 12.5641 17.9256 24.5711 13.9108 40.7692H2.56409V58.7179H13.9108C17.9256 74.9161 32.5606 86.9231 50 86.9231C67.4394 86.9231 82.0743 74.9161 86.0891 58.7179H97.4359V40.7692H86.0891Z" fill="#adadad"/>
</svg>
