<svg width="100" height="100" viewBox="0 0 100 100" fill="none" xmlns="http://www.w3.org/2000/svg">
<path d="M75.8535 49.6264C75.8535 64.1031 64.1092 75.8428 49.6324 75.8428C35.1522 75.8428 23.4184 64.1031 23.4184 49.6264C23.4184 35.152 35.152 23.416 49.6324 23.416C64.1092 23.416 75.8535 35.1521 75.8535 49.6264ZM49.6324 9C27.1906 9 9 27.1904 9 49.6264C9 72.067 27.1904 90.2588 49.6324 90.2588C72.0707 90.2588 90.26 72.0672 90.26 49.6264C90.2602 27.1904 72.0707 9 49.6324 9Z" fill="#00AFAA"/>
<path d="M100 41H0V57.4359H100V41Z" fill="#000F9F"/>
</svg>
