<svg xmlns="http://www.w3.org/2000/svg" viewBox="0 0 100 82">
<defs>
  <style>
    g {
      display: none;
    }
    g:target {
      display: inline;
    }
  </style>
</defs>
	<g width="100" height="82" viewBox="0 0 100 82" fill="none" id="tfl-lu">
		<path d="M76.2227 40.8725C76.2227 55.3492 64.4783 67.0889 50.0016 67.0889C35.5213 67.0889 23.7875 55.3492 23.7875 40.8725C23.7875 26.398 35.5211 14.6621 50.0016 14.6621C64.4783 14.6621 76.2227 26.3982 76.2227 40.8725ZM50.0016 0.246094C27.5598 0.246094 9.36914 18.4365 9.36914 40.8725C9.36914 63.3131 27.5596 81.5049 50.0016 81.5049C72.4399 81.5049 90.6291 63.3133 90.6291 40.8725C90.6293 18.4365 72.4399 0.246094 50.0016 0.246094Z" fill="#E1251F" />
		<path d="M100 32.6567H0V49.0927H100V32.6567Z" fill="#000F9F" />
	</g>

	<g width="100" height="82" viewBox="0 0 100 82" fill="none" id="tfl-dlr">
		<path d="M75.8535 40.6264C75.8535 55.1031 64.1092 66.8428 49.6324 66.8428C35.1522 66.8428 23.4184 55.1031 23.4184 40.6264C23.4184 26.152 35.152 14.416 49.6324 14.416C64.1092 14.416 75.8535 26.1521 75.8535 40.6264ZM49.6324 0C27.1906 0 9 18.1904 9 40.6264C9 63.067 27.1904 81.2588 49.6324 81.2588C72.0707 81.2588 90.26 63.0672 90.26 40.6264C90.2602 18.1904 72.0707 0 49.6324 0Z" fill="#00AFAA" />
		<path d="M100 32H0V48.4359H100V32Z" fill="#000F9F" />
	</g>
	<g width="100" height="82" viewBox="0 0 100 82" fill="none" id="tfl-lo">
		<path d="M75.8535 40.6264C75.8535 55.1031 64.1092 66.8428 49.6324 66.8428C35.1522 66.8428 23.4184 55.1031 23.4184 40.6264C23.4184 26.152 35.152 14.416 49.6324 14.416C64.1092 14.416 75.8535 26.1521 75.8535 40.6264ZM49.6324 0C27.1906 0 9 18.1904 9 40.6264C9 63.067 27.1904 81.2588 49.6324 81.2588C72.0707 81.2588 90.26 63.0672 90.26 40.6264C90.2602 18.1904 72.0707 0 49.6324 0Z" fill="#FF6309" />
		<path d="M100 32H0V48.4359H100V32Z" fill="#000F9F" />
	</g>
	<g width="100" height="82" viewBox="0 0 100 82" fill="none" id="tfl-el">
		<path d="M75.8535 40.6264C75.8535 55.1031 64.1092 66.8428 49.6324 66.8428C35.1522 66.8428 23.4184 55.1031 23.4184 40.6264C23.4184 26.152 35.152 14.416 49.6324 14.416C64.1092 14.416 75.8535 26.1521 75.8535 40.6264ZM49.6324 0C27.1906 0 9 18.1904 9 40.6264C9 63.067 27.1904 81.2588 49.6324 81.2588C72.0707 81.2588 90.26 63.0672 90.26 40.6264C90.2602 18.1904 72.0707 0 49.6324 0Z" fill="#773DBD" />
		<path d="M100 32H0V48.4359H100V32Z" fill="#000F9F" />
	</g>
</svg>